<svg width="1703" height="427" viewBox="0 0 1703 427" fill="none" xmlns="http://www.w3.org/2000/svg">
<mask id="path-1-outside-1_229_3" maskUnits="userSpaceOnUse" x="0" y="0" width="361" height="427" fill="black">
<rect fill="white" width="361" height="427"/>
<path fill-rule="evenodd" clip-rule="evenodd" d="M323.101 225.629C337.272 207.299 345.387 185.994 345.387 163.263C345.387 142.221 338.432 122.4 326.158 105.031C326.158 105.031 345.387 66.7097 341.151 30C298.326 66.6087 268.849 56.837 247.925 49.9003C247.463 49.7474 247.006 49.5959 246.553 49.4463C226.244 42.738 203.797 39.0147 180.194 39.0147C88.9597 39.0147 15 94.6425 15 163.263C15 185.782 22.965 206.902 36.8916 225.115C22.965 243.329 15 264.449 15 286.968C15 355.588 88.9597 411.216 180.194 411.216C271.427 411.216 351.518 367.457 345.387 286.968C343.763 265.648 340.256 252.951 329.15 234.68C327.072 231.26 325.093 228.306 323.101 225.629Z"/>
</mask>
<path fill-rule="evenodd" clip-rule="evenodd" d="M323.101 225.629C337.272 207.299 345.387 185.994 345.387 163.263C345.387 142.221 338.432 122.4 326.158 105.031C326.158 105.031 345.387 66.7097 341.151 30C298.326 66.6087 268.849 56.837 247.925 49.9003C247.463 49.7474 247.006 49.5959 246.553 49.4463C226.244 42.738 203.797 39.0147 180.194 39.0147C88.9597 39.0147 15 94.6425 15 163.263C15 185.782 22.965 206.902 36.8916 225.115C22.965 243.329 15 264.449 15 286.968C15 355.588 88.9597 411.216 180.194 411.216C271.427 411.216 351.518 367.457 345.387 286.968C343.763 265.648 340.256 252.951 329.15 234.68C327.072 231.26 325.093 228.306 323.101 225.629Z" fill="url(#paint0_linear_229_3)"/>
<path d="M323.101 225.629L311.234 216.454L304.275 225.455L311.067 234.583L323.101 225.629ZM326.158 105.031L312.751 98.3032L308.717 106.342L313.908 113.688L326.158 105.031ZM341.151 30L356.053 28.2806L352.823 0.289182L331.405 18.5982L341.151 30ZM247.925 49.9003L252.645 35.6623L252.645 35.6623L247.925 49.9003ZM246.553 49.4463L241.849 63.6894L241.849 63.6894L246.553 49.4463ZM36.8916 225.115L48.8075 234.226L55.7741 225.115L48.8075 216.004L36.8916 225.115ZM345.387 286.968L330.43 288.107L330.43 288.107L345.387 286.968ZM329.15 234.68L341.968 226.888L341.968 226.888L329.15 234.68ZM330.387 163.263C330.387 182.274 323.632 200.417 311.234 216.454L334.968 234.803C350.911 214.181 360.387 189.714 360.387 163.263H330.387ZM313.908 113.688C324.593 128.807 330.387 145.65 330.387 163.263H360.387C360.387 138.792 352.272 115.993 338.408 96.3739L313.908 113.688ZM326.25 31.7194C328.034 47.182 324.884 63.694 320.883 76.946C318.919 83.4517 316.832 88.9039 315.251 92.6984C314.462 94.5904 313.805 96.0559 313.36 97.0183C313.138 97.4991 312.969 97.8532 312.864 98.0708C312.812 98.1796 312.775 98.2542 312.756 98.2933C312.746 98.3129 312.741 98.3236 312.74 98.3253C312.74 98.3262 312.74 98.3248 312.742 98.3211C312.743 98.3193 312.744 98.3169 312.746 98.3139C312.746 98.3124 312.748 98.3097 312.748 98.309C312.75 98.3062 312.751 98.3032 326.158 105.031C339.565 111.758 339.566 111.755 339.568 111.752C339.569 111.75 339.57 111.747 339.572 111.744C339.574 111.739 339.577 111.733 339.58 111.726C339.587 111.713 339.595 111.698 339.603 111.68C339.621 111.645 339.643 111.6 339.67 111.546C339.723 111.438 339.794 111.293 339.881 111.112C340.056 110.75 340.296 110.245 340.591 109.606C341.182 108.33 341.994 106.515 342.942 104.241C344.833 99.7026 347.289 93.2802 349.603 85.617C354.157 70.531 358.504 49.5277 356.053 28.2806L326.25 31.7194ZM243.205 64.1383C253.589 67.581 268.839 72.7741 287.559 71.2288C306.638 69.654 327.594 61.3228 350.898 41.4018L331.405 18.5982C311.883 35.2859 296.688 40.3732 285.091 41.3305C273.135 42.3174 263.184 39.1563 252.645 35.6623L243.205 64.1383ZM241.849 63.6894C242.293 63.8361 242.742 63.985 243.205 64.1384L252.645 35.6623C252.185 35.5099 251.72 35.3557 251.258 35.2031L241.849 63.6894ZM180.194 54.0147C202.228 54.0147 223.085 57.4917 241.849 63.6894L251.258 35.2031C229.403 27.9843 205.366 24.0147 180.194 24.0147V54.0147ZM30 163.263C30 134.714 45.3497 107.74 72.4005 87.3939C99.4573 67.0434 137.518 54.0147 180.194 54.0147V24.0147C131.635 24.0147 87.0991 38.7999 54.3677 63.4185C21.6301 88.0416 0 123.191 0 163.263H30ZM48.8075 216.004C36.6305 200.079 30 182.098 30 163.263H0C0 189.465 9.29952 213.724 24.9758 234.226L48.8075 216.004ZM30 286.968C30 268.132 36.6305 250.152 48.8075 234.226L24.9758 216.004C9.29952 236.506 0 260.765 0 286.968H30ZM180.194 396.216C137.518 396.216 99.4573 383.187 72.4004 362.837C45.3497 342.491 30 315.516 30 286.968H0C0 327.039 21.6301 362.189 54.3677 386.812C87.0992 411.431 131.635 426.216 180.194 426.216V396.216ZM330.43 288.107C333.03 322.23 317.758 348.453 290.826 366.9C263.329 385.734 223.71 396.216 180.194 396.216V426.216C227.911 426.216 273.955 414.818 307.779 391.651C342.168 368.096 363.876 332.195 360.344 285.828L330.43 288.107ZM316.332 242.471C326.045 258.45 328.96 268.8 330.43 288.107L360.344 285.828C358.566 262.496 354.467 247.452 341.968 226.888L316.332 242.471ZM311.067 234.583C312.739 236.831 314.459 239.389 316.332 242.471L341.968 226.888C339.684 223.132 337.447 219.782 335.135 216.675L311.067 234.583Z" fill="#EFF2F1" mask="url(#path-1-outside-1_229_3)"/>
<path d="M345.387 286.968C351.518 367.457 271.427 411.216 180.194 411.216C88.9597 411.216 15 355.588 15 286.968C15 218.347 88.9597 162.719 180.194 162.719C203.797 162.719 221.805 164.45 246.553 173.151C270.446 181.551 284.027 188.287 303.03 205.03C314.608 215.231 321.135 221.493 329.15 234.68C340.256 252.951 343.763 265.648 345.387 286.968Z" fill="#00271E"/>
<path d="M345.387 163.263C345.387 231.883 271.427 287.511 180.194 287.511C88.9597 287.511 15 231.883 15 163.263C15 94.6425 88.9597 39.0147 180.194 39.0147C203.797 39.0147 226.244 42.738 246.553 49.4463C267.556 56.3837 297.382 67.4156 341.151 30C345.387 66.7097 326.158 105.031 326.158 105.031C338.433 122.4 345.387 142.221 345.387 163.263Z" fill="url(#paint1_linear_229_3)"/>
<g filter="url(#filter0_d_229_3)">
<path d="M196.076 217.57C201.853 222.118 206.86 227.184 211.835 232.574C216.74 237.86 221.854 242.931 226.985 247.995C229.797 250.781 232.579 253.55 235.152 256.56C239.005 261.063 243.359 265.105 247.613 269.224C255.648 277.133 255.648 277.133 256.234 281.779C255.579 286.282 254.313 288.668 250.657 291.533C247.972 292.72 246.065 293.649 243.571 292.402C241.377 291.305 239.574 289.154 237.72 287.282C237.138 286.721 236.811 286.406 236.229 285.845C233.938 283.612 231.775 281.324 229.7 278.891C225.898 274.521 221.725 270.505 217.606 266.437C208.368 257.312 208.368 257.312 204.437 252.699C202.71 250.715 200.838 248.889 198.955 247.055C196.004 244.148 193.185 241.198 190.544 238.001C188.8 236.116 188.201 235.336 186.156 234.666C185.059 234.308 184.38 234.162 183.23 234.255C182.194 234.338 181.535 234.543 180.67 234.986C179.839 235.412 179.511 235.92 179.01 236.709C177.611 238.916 179.207 243.398 179.207 243.398C179.207 243.398 186.094 251.066 189.721 254.597C191.172 256.082 192.515 257.569 193.858 259.146C197.638 263.507 201.801 267.504 205.904 271.557C215.078 280.618 215.078 280.618 219.028 285.256C220.598 287.042 222.289 288.683 223.999 290.334C235.061 301.031 235.792 301.91 235.792 305.862C235.792 309.893 234.463 312.797 231.137 315.076C228.737 316.721 226.789 317.313 223.909 316.89C220.353 316.368 218.75 313.71 216.509 311.419C215.689 310.612 214.867 309.808 214.044 309.004C210.522 305.542 207.028 302.092 203.807 298.345C200.879 294.958 197.712 291.836 194.521 288.699C191.038 285.274 187.613 281.864 184.491 278.102C183.075 276.425 181.509 274.919 179.939 273.385C179.415 272.845 178.89 272.305 178.35 271.748C177.485 270.861 177.485 270.861 176.602 269.957C176.058 269.396 175.514 268.835 174.953 268.257C172.74 266.242 171.127 264.923 168.236 265.111C166.029 265.255 164.239 265.628 163.116 267.534C162.101 269.257 163.116 272.654 163.116 272.654C163.116 272.654 167.381 277.613 169.699 279.968C170.952 281.351 172.202 282.738 173.448 284.128C177.092 288.133 180.907 291.957 184.773 295.747C186.99 297.932 189.116 300.145 191.141 302.51C194.918 306.89 203.257 314.896 203.257 314.896C203.257 314.896 212.091 323.939 211.801 327.464C211.51 330.989 210.281 333.103 207.732 335.555C203.635 339.497 198.987 339.854 193.47 338.481C187.863 337.085 184.875 334.612 182.133 328.972C180.584 325.787 179.985 321.719 178.842 318.367C176.931 312.764 175.351 310.315 170.322 307.19C167.922 305.699 166.269 305.3 163.482 304.836C161.288 304.47 158.874 304.673 157.997 304.104C156.411 303.077 157.287 301.299 157.402 299.305C157.444 293.481 155.594 289.03 151.137 284.722C145.936 279.696 140.601 278.168 133.449 279.237C126.829 280.226 125.083 283.259 118.943 288.368C116.003 290.814 113.488 292.347 109.724 291.671C106.123 291.023 103.893 289.163 102.41 285.819C101.011 282.668 101.298 280.153 102.684 276.997C104.069 273.841 106.465 273.169 108.992 270.825C110.401 269.519 112.649 267.534 112.649 267.534C112.649 267.534 114.301 265.929 114.843 264.608C115.497 263.018 115.936 261.779 115.209 260.22C114.422 258.532 112.653 257.77 111.186 257.66C109.835 257.559 107.895 258.757 107.895 258.757L104.238 261.683L100.947 264.608C100.947 264.608 97.7178 267.932 95.004 268.631C91.6503 269.496 89.2514 268.844 86.2728 267.077C82.1783 264.648 80.7736 261.324 80.1016 256.563C79.2481 250.516 82.0527 247.091 85.9528 242.392C88.0359 239.882 89.6637 238.902 92.1698 236.815C94.1235 235.187 97.2897 232.792 97.2897 232.792L101.495 237.729C101.495 237.729 109.726 246.729 116.812 248.766C125.494 251.262 132.746 249.874 139.696 245.389C145.816 240.729 151.024 235.082 156.371 229.579C168.121 217.51 179.34 208.348 196.076 217.57Z" fill="#EFF2F1"/>
<path d="M178.831 176.873C180.457 176.875 182.082 176.858 183.707 176.839C200.856 176.762 211.297 183.037 223.192 194.787C225.505 197.083 227.808 199.387 230.109 201.694C231.893 203.481 233.68 205.264 235.467 207.047C236.617 208.198 237.767 209.349 238.917 210.5C239.707 211.288 239.707 211.288 240.513 212.091C243.402 214.994 246.148 217.972 248.823 221.072C250.687 223.184 252.673 225.161 254.68 227.137C255.099 227.553 255.517 227.969 255.949 228.398C257.269 229.709 258.591 231.017 259.914 232.325C259.914 232.325 265.92 238.538 269.536 242.301C272.487 245.37 274.29 246.323 276.599 249.925C278.754 253.287 279.461 255.882 279.045 259.854C278.631 263.793 277.33 267.046 274.656 268.997C271.746 271.121 268.159 271.779 265.608 270.801C261.857 269.363 256.577 262.77 256.577 262.77L254.177 260.22L251.495 257.585C251.495 257.585 249.321 255.448 247.968 254.039C246.274 252.273 245.108 251.009 243.731 249.422C239.667 244.863 235.312 240.598 230.961 236.313C228.382 233.761 223.483 228.457 223.483 228.457C223.483 228.457 217.101 221.585 212.906 217.284C211.958 216.312 210.471 214.803 210.471 214.803C210.471 214.803 200.771 203.726 192.428 203.317C189.447 203.17 188.829 203.186 186.521 203.17C184.648 203.157 182.803 203.182 181.724 203.206C174.559 203.365 169.553 203.674 164.099 208.326C163.344 208.97 162.262 210.083 162.262 210.083L161.235 211.088C161.235 211.088 158.543 213.647 157.182 214.911C151.752 219.965 141.205 230.379 141.205 230.379C141.205 230.379 132.757 238.277 126.157 238.085C121.199 237.941 117.516 237.051 114.455 233.148C111.699 229.634 111.195 226.356 112.038 221.971C112.931 217.325 116.167 214.98 119.06 212.1C119.4 211.761 119.739 211.422 120.088 211.073C120.802 210.362 121.517 209.652 122.235 208.944C123.314 207.878 124.388 206.806 125.46 205.733C128.932 202.275 132.443 198.897 136.184 195.73C137.441 194.624 138.587 193.454 139.734 192.235C151.148 180.717 162.791 176.825 178.831 176.873Z" fill="#F4F6F6"/>
<path d="M141.174 287.282C144.958 288.695 147.454 290.691 148.488 294.596C149.316 297.723 148.903 300.024 147.208 302.779C146.669 303.655 146.155 304.881 145.197 306.024C144.107 307.325 143.597 307.575 141.906 308.859C139.331 310.813 137.41 311.946 134.18 311.83C129.983 311.68 126.983 309.792 125.129 306.024C123.908 303.543 123.952 301.721 124.352 298.985C125.508 291.066 133.677 284.482 141.174 287.282Z" fill="#E8EBEC"/>
<path d="M163.848 312.15C167.252 313.426 169.383 315.251 170.431 318.733C171.529 322.382 170.444 325.135 168.236 328.241C166.064 331.296 163.881 333.1 160.145 333.407C156.36 333.718 153.672 332.43 151.231 329.521C148.905 326.748 148.234 324.128 148.854 320.561C149.553 316.539 159.094 310.368 163.848 312.15Z" fill="#E8ECEB"/>
</g>
<g filter="url(#filter1_d_229_3)">
<circle cx="93.3612" cy="132.363" r="17.6489" fill="#F4F6F6"/>
<circle cx="179.488" cy="121.068" r="17.6489" fill="#F4F6F6"/>
<circle cx="265.614" cy="132.363" r="17.6489" fill="#F4F6F6"/>
</g>
<path d="M422.929 352V90.1818H531.082C550.684 90.1818 567.602 93.7187 581.835 100.793C596.153 107.781 607.19 117.838 614.946 130.963C622.701 144.003 626.579 159.472 626.579 177.369C626.579 195.523 622.616 210.949 614.69 223.648C606.764 236.261 595.514 245.892 580.94 252.54C566.366 259.102 549.108 262.384 529.164 262.384H460.77V212.526H517.403C526.949 212.526 534.917 211.29 541.309 208.818C547.787 206.261 552.687 202.426 556.011 197.312C559.335 192.114 560.997 185.466 560.997 177.369C560.997 169.273 559.335 162.582 556.011 157.298C552.687 151.929 547.787 147.923 541.309 145.281C534.832 142.554 526.863 141.19 517.403 141.19H486.21V352H422.929ZM570.329 232.341L635.528 352H566.494L502.574 232.341H570.329ZM749.211 355.707C728.671 355.707 710.944 351.659 696.029 343.562C681.199 335.381 669.779 323.747 661.767 308.662C653.841 293.491 649.878 275.466 649.878 254.585C649.878 234.301 653.884 216.574 661.895 201.403C669.907 186.148 681.199 174.301 695.773 165.864C710.347 157.341 727.52 153.08 747.293 153.08C761.27 153.08 774.054 155.253 785.645 159.599C797.236 163.946 807.25 170.381 815.688 178.903C824.125 187.426 830.688 197.952 835.375 210.48C840.063 222.923 842.407 237.199 842.407 253.307V268.903H671.739V232.597H784.239C784.154 225.949 782.577 220.026 779.509 214.827C776.441 209.628 772.222 205.58 766.853 202.682C761.569 199.699 755.475 198.207 748.571 198.207C741.583 198.207 735.319 199.784 729.779 202.938C724.239 206.006 719.85 210.224 716.611 215.594C713.373 220.878 711.668 226.886 711.498 233.619V270.565C711.498 278.577 713.074 285.608 716.228 291.659C719.381 297.625 723.855 302.27 729.651 305.594C735.446 308.918 742.35 310.58 750.361 310.58C755.901 310.58 760.929 309.812 765.446 308.278C769.963 306.744 773.841 304.486 777.08 301.503C780.319 298.52 782.748 294.855 784.367 290.509L841.767 292.17C839.381 305.04 834.14 316.247 826.043 325.793C818.032 335.253 807.506 342.625 794.466 347.909C781.426 353.108 766.341 355.707 749.211 355.707ZM1002.56 425.636V320.168H1001.28C998.639 326.219 994.889 331.886 990.031 337.17C985.173 342.455 979.079 346.716 971.75 349.955C964.505 353.193 955.94 354.812 946.054 354.812C931.565 354.812 918.397 351.062 906.551 343.562C894.704 336.062 885.244 324.812 878.17 309.812C871.096 294.812 867.559 276.19 867.559 253.946C867.559 230.849 871.224 211.844 878.554 196.929C885.883 182.014 895.471 170.977 907.318 163.818C919.25 156.659 932.076 153.08 945.798 153.08C956.11 153.08 964.931 154.869 972.261 158.449C979.591 161.943 985.642 166.46 990.414 172C995.187 177.54 998.809 183.293 1001.28 189.259H1003.2V155.636H1065.07V425.636H1002.56ZM967.787 306.105C975.372 306.105 981.849 303.974 987.218 299.713C992.588 295.366 996.721 289.273 999.619 281.432C1002.52 273.591 1003.97 264.386 1003.97 253.818C1003.97 243.08 1002.52 233.832 999.619 226.077C996.806 218.321 992.673 212.355 987.218 208.179C981.849 204.003 975.372 201.915 967.787 201.915C960.031 201.915 953.468 204.045 948.099 208.307C942.73 212.568 938.639 218.577 935.826 226.332C933.099 234.088 931.735 243.25 931.735 253.818C931.735 264.386 933.142 273.591 935.954 281.432C938.767 289.273 942.815 295.366 948.099 299.713C953.468 303.974 960.031 306.105 967.787 306.105ZM1246.13 168.676C1245.28 159.301 1241.48 152.014 1234.75 146.815C1228.1 141.531 1218.6 138.889 1206.24 138.889C1198.06 138.889 1191.24 139.955 1185.79 142.085C1180.33 144.216 1176.24 147.156 1173.51 150.906C1170.79 154.571 1169.38 158.79 1169.3 163.562C1169.13 167.483 1169.89 170.935 1171.6 173.918C1173.39 176.901 1175.94 179.543 1179.27 181.844C1182.68 184.06 1186.77 186.02 1191.54 187.724C1196.31 189.429 1201.68 190.92 1207.65 192.199L1230.15 197.312C1243.1 200.125 1254.52 203.875 1264.41 208.562C1274.38 213.25 1282.73 218.832 1289.47 225.31C1296.28 231.787 1301.44 239.244 1304.94 247.682C1308.43 256.119 1310.22 265.58 1310.3 276.062C1310.22 292.597 1306.04 306.787 1297.78 318.634C1289.51 330.48 1277.62 339.557 1262.11 345.864C1246.68 352.17 1228.06 355.324 1206.24 355.324C1184.34 355.324 1165.25 352.043 1148.97 345.48C1132.69 338.918 1120.03 328.946 1111 315.565C1101.97 302.185 1097.32 285.267 1097.07 264.812H1157.66C1158.17 273.25 1160.43 280.281 1164.44 285.906C1168.44 291.531 1173.94 295.793 1180.93 298.69C1188 301.588 1196.19 303.037 1205.47 303.037C1214 303.037 1221.24 301.886 1227.21 299.585C1233.26 297.284 1237.9 294.088 1241.14 289.997C1244.38 285.906 1246.04 281.219 1246.13 275.935C1246.04 270.991 1244.51 266.773 1241.53 263.278C1238.54 259.699 1233.94 256.631 1227.72 254.074C1221.58 251.432 1213.74 249.003 1204.2 246.787L1176.84 240.395C1154.17 235.196 1136.31 226.801 1123.27 215.21C1110.23 203.534 1103.76 187.767 1103.84 167.909C1103.76 151.716 1108.1 137.526 1116.88 125.338C1125.66 113.151 1137.8 103.648 1153.32 96.8295C1168.83 90.0114 1186.51 86.6023 1206.37 86.6023C1226.65 86.6023 1244.25 90.054 1259.17 96.9574C1274.17 103.776 1285.8 113.364 1294.07 125.722C1302.34 138.08 1306.55 152.398 1306.72 168.676H1246.13ZM1434.05 355.707C1413.51 355.707 1395.79 351.659 1380.87 343.562C1366.04 335.381 1354.62 323.747 1346.61 308.662C1338.69 293.491 1334.72 275.466 1334.72 254.585C1334.72 234.301 1338.73 216.574 1346.74 201.403C1354.75 186.148 1366.04 174.301 1380.62 165.864C1395.19 157.341 1412.36 153.08 1432.14 153.08C1446.11 153.08 1458.9 155.253 1470.49 159.599C1482.08 163.946 1492.09 170.381 1500.53 178.903C1508.97 187.426 1515.53 197.952 1520.22 210.48C1524.91 222.923 1527.25 237.199 1527.25 253.307V268.903H1356.58V232.597H1469.08C1469 225.949 1467.42 220.026 1464.35 214.827C1461.28 209.628 1457.07 205.58 1451.7 202.682C1446.41 199.699 1440.32 198.207 1433.42 198.207C1426.43 198.207 1420.16 199.784 1414.62 202.938C1409.08 206.006 1404.69 210.224 1401.45 215.594C1398.22 220.878 1396.51 226.886 1396.34 233.619V270.565C1396.34 278.577 1397.92 285.608 1401.07 291.659C1404.22 297.625 1408.7 302.27 1414.49 305.594C1420.29 308.918 1427.19 310.58 1435.2 310.58C1440.74 310.58 1445.77 309.812 1450.29 308.278C1454.81 306.744 1458.69 304.486 1461.92 301.503C1465.16 298.52 1467.59 294.855 1469.21 290.509L1526.61 292.17C1524.22 305.04 1518.98 316.247 1510.89 325.793C1502.88 335.253 1492.35 342.625 1479.31 347.909C1466.27 353.108 1451.19 355.707 1434.05 355.707ZM1559.18 352V155.636H1619.9V191.432H1621.95C1625.53 178.477 1631.37 168.847 1639.46 162.54C1647.56 156.148 1656.98 152.952 1667.72 152.952C1670.61 152.952 1673.6 153.165 1676.66 153.591C1679.73 153.932 1682.59 154.486 1685.23 155.253V209.585C1682.25 208.562 1678.33 207.753 1673.47 207.156C1668.7 206.56 1664.43 206.261 1660.68 206.261C1653.27 206.261 1646.58 207.923 1640.61 211.247C1634.73 214.486 1630.09 219.045 1626.68 224.926C1623.35 230.722 1621.69 237.54 1621.69 245.381V352H1559.18Z" fill="#00C898"/>
<defs>
<filter id="filter0_d_229_3" x="39.9479" y="140.839" width="279.211" height="242.37" filterUnits="userSpaceOnUse" color-interpolation-filters="sRGB">
<feFlood flood-opacity="0" result="BackgroundImageFix"/>
<feColorMatrix in="SourceAlpha" type="matrix" values="0 0 0 0 0 0 0 0 0 0 0 0 0 0 0 0 0 0 127 0" result="hardAlpha"/>
<feOffset dy="4"/>
<feGaussianBlur stdDeviation="20"/>
<feComposite in2="hardAlpha" operator="out"/>
<feColorMatrix type="matrix" values="0 0 0 0 0 0 0 0 0 0 0 0 0 0 0 0 0 0 0.79 0"/>
<feBlend mode="normal" in2="BackgroundImageFix" result="effect1_dropShadow_229_3"/>
<feBlend mode="normal" in="SourceGraphic" in2="effect1_dropShadow_229_3" result="shape"/>
</filter>
<filter id="filter1_d_229_3" x="55.7123" y="87.4194" width="247.551" height="86.5929" filterUnits="userSpaceOnUse" color-interpolation-filters="sRGB">
<feFlood flood-opacity="0" result="BackgroundImageFix"/>
<feColorMatrix in="SourceAlpha" type="matrix" values="0 0 0 0 0 0 0 0 0 0 0 0 0 0 0 0 0 0 127 0" result="hardAlpha"/>
<feOffset dy="4"/>
<feGaussianBlur stdDeviation="10"/>
<feComposite in2="hardAlpha" operator="out"/>
<feColorMatrix type="matrix" values="0 0 0 0 0 0 0 0 0 1 0 0 0 0 0.82 0 0 0 1 0"/>
<feBlend mode="normal" in2="BackgroundImageFix" result="effect1_dropShadow_229_3"/>
<feBlend mode="normal" in="SourceGraphic" in2="effect1_dropShadow_229_3" result="shape"/>
</filter>
<linearGradient id="paint0_linear_229_3" x1="221.139" y1="75.0183" x2="180.194" y2="287.511" gradientUnits="userSpaceOnUse">
<stop offset="0.000863806" stop-color="#00FFC2"/>
<stop offset="1" stop-color="#005440"/>
</linearGradient>
<linearGradient id="paint1_linear_229_3" x1="221.139" y1="75.0183" x2="180.194" y2="287.511" gradientUnits="userSpaceOnUse">
<stop offset="0.000863806" stop-color="#00FFC2"/>
<stop offset="1" stop-color="#005440"/>
</linearGradient>
</defs>
</svg>
